{"title":"pink 2012 MTV Video Music Awards 1080i HDTV 34 Mbps MPA2.0 4-2-2","uid":7633749,"size":1253167104,"categoryP":"video","categoryS":"other","magnet":"?xt=urn:btih:9ce0b6ca2f622de60439dd8a159e72631b63634f&amp;dn=pink+2012+MTV+Video+Music+Awards+1080i+HDTV+34+Mbps+MPA2.0+4-2-2&amp;tr=udp%3A%2F%2Ftracker.openbittorrent.com%3A80&amp;tr=udp%3A%2F%2Fopen.demonii.com%3A1337&amp;tr=udp%3A%2F%2Ftracker.coppersurfer.tk%3A6969&amp;tr=udp%3A%2F%2Fexodus.desync.com%3A6969","seeders":4,"leechers":2,"uploader":null,"files":1,"time":1347592308,"description":"Format                           : MPEG-PS\nFile size                        : 1.17 GiB\nDuration                         : 4mn 45s\nOverall bit rate mode            : Variable\nOverall bit rate                 : 35.1 Mbps\n\nVideo\nID                               : 224 (0xE0)\nFormat                           : MPEG Video\nFormat version                   : Version 2\nFormat profile                   : 4:2:2@High\nFormat settings, BVOP            : Yes\nFormat settings, Matrix          : Custom\nDuration                         : 4mn 45s\nBit rate mode                    : Variable\nBit rate                         : 34.0 Mbps\nMaximum bit rate                 : 34.3 Mbps\nWidth                            : 1 920 pixels\nHeight                           : 1 080 pixels\nDisplay aspect ratio             : 16:9\nFrame rate                       : 29.970 fps\nColor space                      : YUV\nChroma subsampling               : 4:2:2\nBit depth                        : 8 bits\nScan type                        : Interlaced\nScan order                       : Top Field First\nCompression mode                 : Lossy\nBits/(Pixel*Frame)               : 0.547\nStream size                      : 1.13 GiB (97%)\n\nAudio\nID                               : 192 (0xC0)\nFormat                           : MPEG Audio\nFormat version                   : Version 1\nFormat profile                   : Layer 2\nDuration                         : 4mn 45s\nBit rate mode                    : Constant\nBit rate                         : 384 Kbps\nChannel(s)                       : 2 channels\nSampling rate                    : 48.0 KHz\nCompression mode                 : Lossy\nStream size                      : 13.1 MiB (1%)\n","torrent":{"xt":"urn:btih:9ce0b6ca2f622de60439dd8a159e72631b63634f","amp;dn":"pink+2012+MTV+Video+Music+Awards+1080i+HDTV+34+Mbps+MPA2.0+4-2-2","amp;tr":["udp%3A%2F%2Ftracker.openbittorrent.com%3A80","udp%3A%2F%2Fopen.demonii.com%3A1337","udp%3A%2F%2Ftracker.coppersurfer.tk%3A6969","udp%3A%2F%2Fexodus.desync.com%3A6969"],"infoHash":"9ce0b6ca2f622de60439dd8a159e72631b63634f","infoHashBuffer":{"type":"Buffer","data":[156,224,182,202,47,98,45,230,4,57,221,138,21,158,114,99,27,99,99,79]},"announce":[],"urlList":[]}}